<svg id='user-bolt_24' width='24' height='24' viewBox='0 0 24 24' xmlns='http://www.w3.org/2000/svg'
    xmlns:xlink='http://www.w3.org/1999/xlink'>
    <rect width='24' height='24' stroke='none' fill='#000000' opacity='0' />


    <g transform="matrix(1 0 0 1 12 12)">
        <g style="">
            <g transform="matrix(1 0 0 1 0 0)">
                <path
                    style="stroke: none; stroke-width: 2; stroke-dasharray: none; stroke-linecap: round; stroke-dashoffset: 0; stroke-linejoin: round; stroke-miterlimit: 4; fill: none; fill-rule: nonzero; opacity: 1;"
                    transform=" translate(-12, -12)" d="M 0 0 L 24 0 L 24 24 L 0 24 z"
                    stroke-linecap="round" />
            </g>
            <g transform="matrix(1 0 0 1 -0.25 -5.25)">
                <path
                    style="stroke: #f00; stroke-width: 1.5; stroke-dasharray: none; stroke-linecap: round; stroke-dashoffset: 0; stroke-linejoin: round; stroke-miterlimit: 4; fill: none; fill-rule: nonzero; opacity: 1;"
                    transform=" translate(-12, -7)"
                    d="M 8 7 C 8 9.209138999323173 9.790861000676827 11 12 11 C 14.209138999323173 11 16 9.209138999323173 16 7 C 16 4.790861000676826 14.209138999323173 3 12 3 C 9.790861000676827 3 8 4.790861000676825 8 6.999999999999999"
                    stroke-linecap="round" />
            </g>
            <g transform="matrix(1 0 0 1 -1.86 5.75)">
                <path
                    style="stroke: #f00; stroke-width: 1.5; stroke-dasharray: none; stroke-linecap: round; stroke-dashoffset: 0; stroke-linejoin: round; stroke-miterlimit: 4; fill: none; fill-rule: nonzero; opacity: 1;"
                    transform=" translate(-10.39, -18)"
                    d="M 6 21 L 6 19 C 6 16.790861000676827 7.790861000676826 15 10 15 L 14 15 C 14.267 15 14.529 15.026 14.781 15.076"
                    stroke-linecap="round" />
            </g>
            <g transform="matrix(1 0 0 1 6.75 6.75)">
                <path
                    style="stroke: #f00; stroke-width: 1.5; stroke-dasharray: none; stroke-linecap: round; stroke-dashoffset: 0; stroke-linejoin: round; stroke-miterlimit: 4; fill: none; fill-rule: nonzero; opacity: 1;"
                    transform=" translate(-19, -19)" d="M 19 16 L 17 19 L 21 19 L 19 22"
                    stroke-linecap="round" />
            </g>
        </g>
    </g>
</svg>