<svg id='device-mobile-vibration_24' width='24' height='24' viewBox='0 0 24 24'
    xmlns='http://www.w3.org/2000/svg' xmlns:xlink='http://www.w3.org/1999/xlink'>
    <rect width='24' height='24' stroke='none' fill='#000000' opacity='0' />


    <g transform="matrix(1 0 0 1 12 12)">
        <g style="">
            <g transform="matrix(1 0 0 1 0 0)">
                <path
                    style="stroke: none; stroke-width: 2; stroke-dasharray: none; stroke-linecap: round; stroke-dashoffset: 0; stroke-linejoin: round; stroke-miterlimit: 4; fill: none; fill-rule: nonzero; opacity: 1;"
                    transform=" translate(-12, -12)" d="M 0 0 L 24 0 L 24 24 L 0 24 z"
                    stroke-linecap="round" />
            </g>
            <g transform="matrix(1 0 0 1 -3.25 -0.25)">
                <rect
                    style="stroke: #f00; stroke-width: 1.5; stroke-dasharray: none; stroke-linecap: round; stroke-dashoffset: 0; stroke-linejoin: round; stroke-miterlimit: 4; fill: none; fill-rule: nonzero; opacity: 1;"
                    x="-6" y="-9" rx="2" ry="2" width="12" height="18" />
            </g>
            <g transform="matrix(1 0 0 1 -3.25 -8.25)">
                <line
                    style="stroke: #f00; stroke-width: 1.5; stroke-dasharray: none; stroke-linecap: round; stroke-dashoffset: 0; stroke-linejoin: round; stroke-miterlimit: 4; fill: none; fill-rule: nonzero; opacity: 1;"
                    x1="-1" y1="0" x2="1" y2="0" />
            </g>
            <g transform="matrix(1 0 0 1 -3.25 4.76)">
                <line
                    style="stroke: #f00; stroke-width: 1.5; stroke-dasharray: none; stroke-linecap: round; stroke-dashoffset: 0; stroke-linejoin: round; stroke-miterlimit: 4; fill: none; fill-rule: nonzero; opacity: 1;"
                    x1="0" y1="-0.005000000000000782" x2="0" y2="0.005000000000000782" />
            </g>
            <g transform="matrix(1 0 0 1 7.75 -0.25)">
                <path
                    style="stroke: #f00; stroke-width: 1.5; stroke-dasharray: none; stroke-linecap: round; stroke-dashoffset: 0; stroke-linejoin: round; stroke-miterlimit: 4; fill: none; fill-rule: nonzero; opacity: 1;"
                    transform=" translate(-20, -12)" d="M 21 6 L 19 9 L 21 12 L 19 15 L 21 18"
                    stroke-linecap="round" />
            </g>
        </g>
    </g>
</svg>