<svg id='truck-delivery_24' width='24' height='24' viewBox='0 0 24 24'
    xmlns='http://www.w3.org/2000/svg' xmlns:xlink='http://www.w3.org/1999/xlink'>
    <rect width='24' height='24' stroke='none' fill='#000000' opacity='0' />


    <g transform="matrix(1 0 0 1 12 12)">
        <g style="">
            <g transform="matrix(1 0 0 1 0 0)">
                <path
                    style="stroke: none; stroke-width: 1.5; stroke-dasharray: none; stroke-linecap: round; stroke-dashoffset: 0; stroke-linejoin: round; stroke-miterlimit: 4; fill: none; fill-rule: nonzero; opacity: 1;"
                    transform=" translate(-12, -12)" d="M 0 0 L 24 0 L 24 24 L 0 24 z"
                    stroke-linecap="round" />
            </g>
            <g transform="matrix(1 0 0 1 -5.25 4.75)">
                <circle
                    style="stroke: #f00; stroke-width: 1; stroke-dasharray: none; stroke-linecap: round; stroke-dashoffset: 0; stroke-linejoin: round; stroke-miterlimit: 4; fill: none; fill-rule: nonzero; opacity: 1;"
                    cx="0" cy="0" r="2" />
            </g>
            <g transform="matrix(1 0 0 1 4.75 4.75)">
                <circle
                    style="stroke: #f00; stroke-width: 1; stroke-dasharray: none; stroke-linecap: round; stroke-dashoffset: 0; stroke-linejoin: round; stroke-miterlimit: 4; fill: none; fill-rule: nonzero; opacity: 1;"
                    cx="0" cy="0" r="2" />
            </g>
            <g transform="matrix(1 0 0 1 -0.75 -1.25)">
                <path
                    style="stroke: #f00; stroke-width: 1; stroke-dasharray: none; stroke-linecap: round; stroke-dashoffset: 0; stroke-linejoin: round; stroke-miterlimit: 4; fill: none; fill-rule: nonzero; opacity: 1;"
                    transform=" translate(-11.5, -11)"
                    d="M 5 17 L 3 17 L 3 13 M 2 5 L 13 5 L 13 17 M 9 17 L 15 17 M 19 17 L 21 17 L 21 11 L 13 11 M 13 6 L 18 6 L 21 11"
                    stroke-linecap="round" />
            </g>
            <g transform="matrix(1 0 0 1 -7.25 -3.25)">
                <line
                    style="stroke: #f00; stroke-width: 1.5; stroke-dasharray: none; stroke-linecap: round; stroke-dashoffset: 0; stroke-linejoin: round; stroke-miterlimit: 4; fill: none; fill-rule: nonzero; opacity: 1;"
                    x1="-2" y1="0" x2="2" y2="0" />
            </g>
        </g>
    </g>
</svg>